<?xml version="1.0" standalone="no"?>
<!DOCTYPE svg PUBLIC "-//W3C//DTD SVG 20010904//EN"
 "http://www.w3.org/TR/2001/REC-SVG-20010904/DTD/svg10.dtd">
<svg version="1.0" xmlns="http://www.w3.org/2000/svg"
 width="1280.000000pt" height="1280.000000pt" viewBox="0 0 1280.000000 1280.000000"
 preserveAspectRatio="xMidYMid meet">
<g transform="translate(0.000000,1280.000000) scale(0.100000,-0.100000)"
fill="#000000" stroke="none">
<path d="M6210 12797 c-3 -3 -81 -10 -175 -16 -1138 -75 -2150 -403 -3085
-1000 -388 -248 -710 -510 -1066 -865 -262 -263 -447 -476 -632 -727 -711
-970 -1135 -2112 -1222 -3289 -6 -80 -15 -192 -20 -250 -13 -134 -13 -366 0
-500 5 -58 14 -170 20 -250 103 -1394 677 -2727 1626 -3780 845 -937 1957
-1608 3176 -1916 353 -89 715 -147 1073 -174 83 -6 194 -15 248 -21 125 -12
369 -12 494 0 54 6 166 15 248 21 1069 79 2103 432 3010 1028 828 543 1516
1269 2025 2137 96 164 274 518 348 693 274 647 441 1331 492 2012 6 80 15 192
20 250 13 134 13 366 0 500 -5 58 -14 170 -20 250 -80 1078 -444 2131 -1051
3042 -664 996 -1611 1799 -2699 2288 -608 274 -1279 455 -1940 524 -305 32
-854 59 -870 43z m510 -547 c844 -52 1587 -251 2320 -621 1385 -698 2438
-1921 2925 -3396 143 -431 232 -875 277 -1373 16 -183 16 -741 0 -920 -73
-798 -264 -1485 -601 -2159 -856 -1708 -2493 -2896 -4376 -3175 -318 -47 -504
-60 -865 -60 -454 0 -747 29 -1170 114 -2053 416 -3735 1911 -4396 3908 -411
1244 -386 2639 69 3862 679 1825 2208 3192 4092 3659 551 136 1175 194 1725
161z"/>
<path d="M4515 10665 c-48 -17 -102 -76 -110 -119 -3 -17 -5 -220 -3 -451 l3
-420 24 -34 c72 -100 244 -90 299 19 22 44 22 49 22 463 0 390 -1 420 -19 455
-24 47 -50 70 -98 88 -48 17 -68 17 -118 -1z"/>
<path d="M3005 10026 c-79 -35 -125 -142 -95 -223 12 -32 591 -617 632 -639
15 -8 48 -14 74 -14 69 0 125 36 158 102 29 58 30 67 15 123 -9 33 -59 88
-293 324 -154 156 -301 296 -325 312 -50 32 -114 38 -166 15z"/>
<path d="M5990 10021 c-48 -27 -696 -679 -709 -714 -32 -84 9 -186 91 -226 54
-26 91 -26 143 -2 26 12 155 134 376 357 260 262 339 348 349 377 22 69 -8
153 -72 200 -40 30 -132 33 -178 8z"/>
<path d="M4182 8942 c-106 -38 -178 -145 -170 -251 3 -37 97 -338 282 -901
153 -465 516 -1572 807 -2460 292 -888 549 -1671 572 -1740 36 -111 46 -130
87 -171 96 -96 239 -104 342 -19 24 20 154 226 424 671 214 353 395 644 402
647 9 3 228 -209 575 -556 393 -391 576 -567 607 -583 53 -26 143 -31 205 -10
58 19 1036 992 1071 1066 31 64 32 151 3 215 -15 34 -153 179 -587 612 -497
498 -565 569 -552 582 8 8 299 186 645 396 347 210 641 391 654 403 63 58 91
197 56 280 -20 49 -70 104 -114 126 -20 10 -709 239 -1531 509 -822 270 -1976
648 -2565 842 -588 193 -1090 353 -1115 356 -30 3 -63 -2 -98 -14z"/>
<path d="M2380 8549 c-64 -26 -100 -85 -100 -165 0 -71 28 -123 80 -153 38
-21 42 -21 594 -19 542 3 555 3 583 24 38 27 73 99 73 149 0 63 -37 126 -90
153 l-44 22 -536 -1 c-330 0 -545 -4 -560 -10z"/>
<path d="M3665 7678 c-34 -9 -90 -60 -368 -337 -180 -179 -339 -343 -354 -364
-57 -82 -23 -202 71 -250 46 -24 110 -26 151 -4 17 8 184 170 372 359 375 377
377 379 353 466 -14 56 -72 119 -118 132 -43 12 -54 11 -107 -2z"/>
</g>
</svg>
